<mxfile host="65bd71144e">
    <diagram id="O-zBsozvM6u0kQCi7Cgo" name="Page-1">
        <mxGraphModel dx="805" dy="352" grid="1" gridSize="10" guides="1" tooltips="1" connect="1" arrows="1" fold="1" page="1" pageScale="1" pageWidth="3300" pageHeight="4681" math="0" shadow="0">
            <root>
                <mxCell id="0"/>
                <mxCell id="1" parent="0"/>
                <mxCell id="2" value="&lt;b&gt;Banco de Dados&lt;/b&gt;" style="rounded=1;whiteSpace=wrap;html=1;labelPosition=center;verticalLabelPosition=top;align=center;verticalAlign=bottom;fontSize=22;" parent="1" vertex="1">
                    <mxGeometry x="110" y="120" width="330" height="210" as="geometry"/>
                </mxCell>
                <mxCell id="5" value="Tabelas" style="rounded=1;whiteSpace=wrap;html=1;fontSize=22;verticalAlign=middle;" parent="1" vertex="1">
                    <mxGeometry x="160" y="140" width="230" height="50" as="geometry"/>
                </mxCell>
                <mxCell id="7" value="SQL" style="rounded=1;whiteSpace=wrap;html=1;fontSize=22;verticalAlign=middle;" parent="1" vertex="1">
                    <mxGeometry x="160" y="200" width="230" height="50" as="geometry"/>
                </mxCell>
                <mxCell id="8" value="Linhas e colunas" style="rounded=1;whiteSpace=wrap;html=1;fontSize=22;verticalAlign=middle;" parent="1" vertex="1">
                    <mxGeometry x="160" y="260" width="230" height="50" as="geometry"/>
                </mxCell>
                <mxCell id="9" value="&lt;b&gt;DbContext&lt;/b&gt;" style="rounded=1;whiteSpace=wrap;html=1;labelPosition=center;verticalLabelPosition=top;align=center;verticalAlign=bottom;fontSize=22;" parent="1" vertex="1">
                    <mxGeometry x="470" y="120" width="330" height="210" as="geometry"/>
                </mxCell>
                <mxCell id="10" value="DbSets" style="rounded=1;whiteSpace=wrap;html=1;fontSize=22;verticalAlign=middle;" parent="1" vertex="1">
                    <mxGeometry x="520" y="140" width="230" height="50" as="geometry"/>
                </mxCell>
                <mxCell id="11" value="LINQ" style="rounded=1;whiteSpace=wrap;html=1;fontSize=22;verticalAlign=middle;" parent="1" vertex="1">
                    <mxGeometry x="520" y="200" width="230" height="50" as="geometry"/>
                </mxCell>
                <mxCell id="12" value="Objetos" style="rounded=1;whiteSpace=wrap;html=1;fontSize=22;verticalAlign=middle;" parent="1" vertex="1">
                    <mxGeometry x="520" y="260" width="230" height="50" as="geometry"/>
                </mxCell>
            </root>
        </mxGraphModel>
    </diagram>
</mxfile>